<svg version="1.0" xmlns="http://www.w3.org/2000/svg" width="341.333" height="341.333" viewBox="0 0 256 256"><path d="M108.5 1.6C54 10.5 11.8 52 2 106.3c-2.2 12.3-2 34.5.5 46.2 8.2 39.3 33.2 72.1 68.3 89.8 8.7 4.3 25.1 10 32.7 11.3 2.2.4 4.9.9 6 1.1 4.8 1.1 30.6 1 37.5-.2 19.7-3.2 34.9-9.1 51.8-20.1l8.2-5.4v3.9c0 12.2 10.9 22.4 24 22.4 22.1.2 32.4-25.8 16.6-41.6-4-3.9-13-7.4-16.7-6.4-2.5.7-2.4-.4.3-3.8 1.2-1.5 4.2-6.2 6.8-10.4 2.5-4.3 6.6-9.5 9-11.7 2.4-2.1 5.2-5.9 6.3-8.4 2.1-4.7 2.6-13.6 1-17.9-.6-1.5-.5-4.9.2-9.2 1.7-9.7 1.2-32.6-.9-42.4-11.1-51.9-50.3-91-101.4-101.2-10.1-2-33.5-2.4-43.7-.7zM144 27.4c1.4.3 5 1.1 8 1.7 16.1 3.3 34.9 13.9 48 27.1 18.7 18.9 29 43 29.5 69.6.3 12.2.1 13-3.3 13.7-6.4 1.2-13.7 6.7-16.9 12.9-.8 1.5-1.7 5.3-2 8.2l-.6 5.5-13.3 6.7c-12.4 6.2-13.6 6.6-15.7 5.3-14.1-9-30.4-4.9-36.8 9.2-2.2 5-2.5 14.3-.5 19.1 3.6 8.5 12.5 14.9 21.3 15 6.3.1 5.8.7-2.9 3.6-20.9 6.8-47.3 5.9-67.8-2.2-39.8-15.7-65.4-54-64.5-96.5.3-11.1.9-16.2 3.2-24.8C40.2 62.6 72.4 34 113.5 27.2c5.3-.9 26.3-.7 30.5.2zm67.7 158.5c-3.1 4.7-11.1 13.9-14.3 16.4-2.2 1.7-2.5 1.7-6.4-.3-3.4-1.7-4.1-2.5-3.8-4.7.3-2.1 2.3-3.5 13.3-9.2 7.2-3.7 13.2-6.6 13.4-6.4.2.1-.8 2-2.2 4.2z"/><path d="M102.9 46.5C96 48.7 88.6 55.8 86 62.8c-8.4 22.2 12.5 43.6 34.9 35.7 6.8-2.4 11.7-6.9 15.2-14.1 2.9-5.8 3.1-7.1 2.7-13.2-.6-7.5-2.3-11.5-7.5-17.3-6.7-7.4-18.7-10.5-28.4-7.4zM160.1 101.7c-23.8 7-26.8 40-4.7 50.8 14.5 7.1 30.6 1.3 37.4-13.4 9.6-20.8-10.6-43.9-32.7-37.4zM102.7 157.4c-5.8 2.1-10.5 5.7-13.8 10.5-7.5 11.3-6.3 25.7 3.1 35.1 5 5 10.4 7.3 18.2 7.8 5.5.3 7.6 0 12-2 13.9-6.4 20.1-21.3 14.7-35.5-4.9-12.8-21.3-20.5-34.2-15.9z"/></svg>