<?xml version="1.0" standalone="no"?>
<!DOCTYPE svg PUBLIC "-//W3C//DTD SVG 20010904//EN"
 "http://www.w3.org/TR/2001/REC-SVG-20010904/DTD/svg10.dtd">
<svg version="1.0" xmlns="http://www.w3.org/2000/svg"
 width="256.000000pt" height="256.000000pt" viewBox="0 0 256.000000 256.000000"
 preserveAspectRatio="xMidYMid meet">
<metadata>
Created by potrace 1.14, written by Peter Selinger 2001-2017
</metadata>
<g transform="translate(0.000000,256.000000) scale(0.100000,-0.100000)"
fill="#000000" stroke="none">
<path d="M1085 2544 c-545 -89 -967 -504 -1065 -1047 -22 -123 -20 -345 5
-462 82 -393 332 -721 683 -898 87 -43 251 -100 327 -113 22 -4 49 -9 60 -11
48 -11 306 -10 375 2 197 32 349 91 518 201 l82 54 0 -39 c0 -122 109 -224
240 -224 221 -2 324 258 166 416 -40 39 -130 74 -167 64 -25 -7 -24 4 3 38 12
15 42 62 68 104 25 43 66 95 90 117 24 21 52 59 63 84 21 47 26 136 10 179 -6
15 -5 49 2 92 17 97 12 326 -9 424 -111 519 -503 910 -1014 1012 -101 20 -335
24 -437 7z m355 -258 c14 -3 50 -11 80 -17 161 -33 349 -139 480 -271 187
-189 290 -430 295 -696 3 -122 1 -130 -33 -137 -64 -12 -137 -67 -169 -129 -8
-15 -17 -53 -20 -82 l-6 -55 -133 -67 c-124 -62 -136 -66 -157 -53 -141 90
-304 49 -368 -92 -22 -50 -25 -143 -5 -191 36 -85 125 -149 213 -150 63 -1 58
-7 -29 -36 -209 -68 -473 -59 -678 22 -398 157 -654 540 -645 965 3 111 9 162
32 248 105 389 427 675 838 743 53 9 263 7 305 -2z m677 -1585 c-31 -47 -111
-139 -143 -164 -22 -17 -25 -17 -64 3 -34 17 -41 25 -38 47 3 21 23 35 133 92
72 37 132 66 134 64 2 -1 -8 -20 -22 -42z"/>
<path d="M1029 2095 c-69 -22 -143 -93 -169 -163 -84 -222 125 -436 349 -357
68 24 117 69 152 141 29 58 31 71 27 132 -6 75 -23 115 -75 173 -67 74 -187
105 -284 74z"/>
<path d="M1601 1543 c-238 -70 -268 -400 -47 -508 145 -71 306 -13 374 134 96
208 -106 439 -327 374z"/>
<path d="M1027 986 c-58 -21 -105 -57 -138 -105 -75 -113 -63 -257 31 -351 50
-50 104 -73 182 -78 55 -3 76 0 120 20 139 64 201 213 147 355 -49 128 -213
205 -342 159z"/>
</g>
</svg>
